<?xml version="1.0" encoding="utf-8"?>
<!-- Generator: Adobe Illustrator 28.0.0, SVG Export Plug-In . SVG Version: 6.00 Build 0)  -->
<svg version="1.1" id="Layer_1" xmlns="http://www.w3.org/2000/svg" xmlns:xlink="http://www.w3.org/1999/xlink" x="0px" y="0px"
	 viewBox="0 0 51.1 75.1" style="enable-background:new 0 0 51.1 75.1;" xml:space="preserve">
<style type="text/css">
	.st0{fill:#FE0049;}
</style>
<path class="st0" d="M37.7,3.3c-0.3-0.1-0.6-0.3-0.9-0.4c-3.3-1.5-7.1-2.3-11.2-2.3c-3.1,0-6,0.5-8.6,1.3c0,0,0,0,0,0
	C9.1,4.4,3.4,10.3,1.3,18.3c0,0.2-0.1,0.4-0.1,0.5c-0.1,0.3-0.2,0.6-0.2,0.9c-0.2,0.8-0.3,1.7-0.4,2.6c0,0,0,0,0,0
	c0,0.4-0.1,0.7-0.1,1.1c0,0.3,0,0.5,0,0.8c0,0.1,0,0.3,0,0.4V25l0.2,49.7l9.2-1.4c2.4-0.4,4.3-2.5,4.3-4.9V46.1c0,0,0-0.1,0-0.1
	c3.4,1.6,7.3,2.5,11.4,2.5c14.1,0,25-10.5,25-24C50.6,15.2,45.5,7.3,37.7,3.3z M29.5,36.4c-0.2,0-0.4,0.1-0.6,0.2
	c-1,0.3-2.1,0.4-3.2,0.4c-3,0-5.8-1-7.9-2.8c-0.1-0.1-0.3-0.2-0.4-0.4c-0.2-0.1-0.3-0.3-0.4-0.4c-0.1-0.1-0.3-0.3-0.4-0.4
	c0,0,0,0,0,0c-0.3-0.3-0.5-0.6-0.7-0.9c-0.4-0.5-0.7-1-1-1.5c-0.1-0.2-0.2-0.4-0.3-0.7c-0.3-0.7-0.6-1.5-0.8-2.3
	c-0.1-0.3-0.1-0.6-0.2-0.9c0-0.3-0.1-0.6-0.1-1c0-0.1,0-0.1,0-0.2c0-0.3,0-0.7,0-1c0-7,5.2-12.3,12.1-12.3c3.3,0,6.2,1.2,8.4,3.1
	c0.1,0.1,0.3,0.3,0.4,0.4c2.2,2.2,3.5,5.3,3.5,8.9C37.9,30.3,34.5,34.9,29.5,36.4z"/>
</svg>
