<?xml version="1.0" encoding="UTF-8"?>
<svg xmlns="http://www.w3.org/2000/svg" viewBox="0 0 88.22 75.28">
  <defs>
    <style>
      .cls-1 {
        fill: #fe0049;
      }

      .cls-1, .cls-2 {
        mix-blend-mode: darken;
        stroke-width: 0px;
      }

      .cls-2 {
        fill: #00a7e8;
      }

      .cls-3 {
        isolation: isolate;
      }
    </style>
  </defs>
  <g class="cls-3">
    <g id="Layer_1" data-name="Layer 1">
      <g>
        <path class="cls-1" d="m74.77,3.34c-.3-.15-.61-.3-.92-.44-3.34-1.48-7.14-2.29-11.25-2.29-3.06,0-5.96.45-8.61,1.31-.02,0-.03.01-.05.02-7.76,2.5-13.48,8.43-15.52,16.46-.05.18-.09.36-.13.54-.08.32-.15.63-.21.95-.16.84-.28,1.69-.36,2.56h0c-.03.37-.06.73-.08,1.1,0,.26,0,.51,0,.77,0,.15-.01.3-.01.45v.34l.2,49.67,9.24-1.37c2.45-.36,4.26-2.46,4.26-4.94v-22.3s-.02-.07-.03-.11c3.41,1.62,7.28,2.53,11.43,2.53,14.1,0,25-10.5,25-24,0-9.35-5.15-17.23-12.95-21.25Zm-8.18,33.14c-.19.05-.39.11-.58.16-1.01.27-2.08.41-3.2.41-3.03,0-5.75-1.04-7.85-2.81-.14-.12-.27-.24-.41-.36-.15-.13-.29-.27-.42-.41-.13-.12-.27-.27-.4-.42h-.01c-.26-.29-.5-.6-.73-.91-.36-.49-.68-1-.97-1.55-.11-.21-.22-.44-.32-.66-.32-.72-.57-1.48-.75-2.27-.07-.28-.12-.57-.17-.86-.05-.32-.1-.64-.12-.98-.01-.05-.02-.1-.01-.16-.04-.34-.05-.7-.05-1.05,0-7,5.2-12.3,12.11-12.3,3.28,0,6.19,1.17,8.36,3.14.14.12.28.26.42.4,2.2,2.21,3.52,5.31,3.52,8.86,0,5.69-3.43,10.25-8.42,11.77Z"/>
        <path class="cls-1" d="m37.62,24.59v.18c0-.15.01-.3.01-.45-.01.09-.01.18-.01.27Z"/>
        <path class="cls-2" d="m25.6.5C11.5.5.5,11,.5,24.6s11,24,25.1,24,25-10.5,25-24S39.7.5,25.6.5Zm-12.2,24c0-7,5.3-12.3,12.2-12.3s12.1,5.3,12.1,12.3-5.2,12.4-12.1,12.4-12.2-5.4-12.2-12.4Z"/>
      </g>
    </g>
  </g>
</svg>