<?xml version="1.0" encoding="UTF-8"?>
<svg xmlns="http://www.w3.org/2000/svg" viewBox="0 0 205.22 137.65">
  <defs>
    <style>
      .cls-1 {
        fill: #fe0049;
        mix-blend-mode: darken;
        stroke-width: 0px;
      }

      .cls-2 {
        isolation: isolate;
      }
    </style>
  </defs>
  <g class="cls-2">
    <g id="Layer_1" data-name="Layer 1">
      <path class="cls-1" d="m60.49,62.98c-14.4,0-25,10-25,24.5l.2,49.67,9.24-1.37c2.45-.36,4.26-2.46,4.26-4.94v-22.3c3.42,1.66,7.33,2.58,11.51,2.58,1,0,1.98-.05,2.95-.16,12.4-.44,22.15-10.58,22.15-23.78,0-13.9-10.7-24.2-25.31-24.2Zm.21,36.44c-3.03,0-5.75-1.04-7.85-2.81-.14-.12-.27-.24-.41-.36-.15-.13-.29-.27-.42-.41-.13-.12-.27-.27-.4-.42h-.01c-.26-.29-.5-.6-.73-.91-.96-1.3-1.66-2.81-2.04-4.48-.07-.28-.12-.57-.17-.86-.12-.7-.18-1.44-.18-2.19,0-7,5.2-12.3,12.11-12.3s12.3,5.3,12.3,12.4c0,5.69-3.43,10.25-8.42,11.77-.19.05-.39.11-.58.16-1.01.27-2.08.41-3.2.41Z"/>
    </g>
  </g>
</svg>