<?xml version="1.0" encoding="UTF-8"?>
<svg xmlns="http://www.w3.org/2000/svg" viewBox="0 0 205.22 137.65">
  <defs>
    <style>
      .cls-1 {
        fill: #fe0049;
      }

      .cls-1, .cls-2 {
        mix-blend-mode: darken;
        stroke-width: 0px;
      }

      .cls-2 {
        fill: #00a7e8;
      }

      .cls-3 {
        isolation: isolate;
      }
    </style>
  </defs>
  <g class="cls-3">
    <g id="Layer_1" data-name="Layer 1">
      <g>
        <g>
          <path class="cls-2" d="m152.23,26.5v12.2c-8.9,0-13.8,4.1-13.8,13.3v20.9h-13.6v-40.29c0-2.52,1.88-4.65,4.38-4.96l8.42-1.05v7.6c2.7-5.1,7.4-7.7,14.6-7.7Z"/>
          <path class="cls-1" d="m118.86,72.9l-.4-3c-3,2.7-7,4.3-11.6,4.3-9.5,0-17-7-17-16.2s7.3-16.1,17.4-16.1c3.8,0,7.3,1.3,10.4,3.3v-1.6c0-5-2.5-7.6-9.9-7.6-3.7,0-7.3.7-10.9,1.9l1.6-9.9c4.2-1.1,8.1-1.6,11.9-1.6,15.83,0,20,5.4,20,16.4v21.9l.4,8.2h-11.9Zm-.8-15.2c0-4-2.2-7.1-6.6-7.1s-8.6,3.1-8.6,7.1,3.2,7.1,7.5,7.1,7.7-3.1,7.7-7.1Z"/>
          <path class="cls-2" d="m88.95,72.9l-14.4-21.1v21.1h-13.6V6.58c0-2.5,1.86-4.61,4.35-4.93l9.25-1.16v46.4l13.9-19.5h15.7l-16.5,21.8,17.4,23.7h-16.1Z"/>
          <path class="cls-1" d="m35.3,70.1l1.6-10.1c4.3,2.4,8.3,3.9,12.2,3.9,3.4,0,5.4-1.6,5.4-4.2,0-2-1.1-3.5-5.5-4.8l-1.8-.7c-6.9-2.4-11-7.2-11-14.1,0-8,6.3-14,16.1-14,4.4,0,9.2,1.2,13.5,3.1l-1.7,10.2c-4-2.1-8.3-3.3-11.2-3.3s-4.5,1.6-4.5,3.6c0,1.8,1,3.2,4.7,4.5l2,.7c8.1,2.8,12.2,7.4,12.2,14.5,0,8.8-6.7,14.8-16.9,14.8-5.3,0-10.6-1.6-15.1-4.1Z"/>
          <path class="cls-2" d="m.5,50.2c0-13.6,11-24.1,25.1-24.1s25,10.5,25,24.1-10.9,24-25,24S.5,63.7.5,50.2Zm37.2-.1c0-7-5.2-12.3-12.1-12.3s-12.2,5.3-12.2,12.3,5.3,12.4,12.2,12.4,12.1-5.4,12.1-12.4Z"/>
        </g>
        <g>
          <path class="cls-2" d="m153.77,69.48v40.28h13.7v-46.4l-9.31,1.16c-2.51.31-4.39,2.44-4.39,4.96Z"/>
          <path class="cls-1" d="m188.62,109.76l-14.4-21.1v21.1h-13.6V43.46c0-2.52,1.88-4.65,4.38-4.96l9.22-1.15v46.4l13.9-19.5h15.7l-16.5,21.8,17.4,23.7h-16.1Z"/>
          <path class="cls-1" d="m135.44,61.82c-14.4,0-25,10-25,24.5l.2,49.67,9.24-1.37c2.45-.36,4.26-2.46,4.26-4.94v-22.3c3.42,1.66,7.33,2.58,11.51,2.58,1,0,1.98-.05,2.95-.16,12.4-.44,22.15-10.58,22.15-23.78,0-13.9-10.7-24.2-25.31-24.2Zm.21,36.44c-3.03,0-5.75-1.04-7.85-2.81-.14-.12-.27-.24-.41-.36-.15-.13-.29-.27-.42-.41-.13-.12-.27-.27-.4-.42h-.01c-.26-.29-.5-.6-.73-.91-.96-1.3-1.66-2.81-2.04-4.48-.07-.28-.12-.57-.17-.86-.12-.7-.18-1.44-.18-2.19,0-7,5.2-12.3,12.11-12.3s12.3,5.3,12.3,12.4c0,5.69-3.43,10.25-8.42,11.77-.19.05-.39.11-.58.16-1.01.27-2.08.41-3.2.41Z"/>
          <path class="cls-2" d="m160.57,40.32c-4.6,0-8.3,3.6-8.3,8.1s3.7,8,8.3,8,8.4-3.6,8.4-8-3.7-8.1-8.4-8.1Z"/>
          <path class="cls-2" d="m97.99,62.51c-14.1,0-25.1,10.5-25.1,24.1s11,24,25.1,24,25-10.5,25-24-10.9-24.1-25-24.1Zm-12.2,24c0-7,5.3-12.3,12.2-12.3s12.1,5.3,12.1,12.3-5.2,12.4-12.1,12.4-12.2-5.4-12.2-12.4Z"/>
          <path class="cls-1" d="m60.49,62.98c-14.4,0-25,10-25,24.5l.2,49.67,9.24-1.37c2.45-.36,4.26-2.46,4.26-4.94v-22.3c3.42,1.66,7.33,2.58,11.51,2.58,1,0,1.98-.05,2.95-.16,12.4-.44,22.15-10.58,22.15-23.78,0-13.9-10.7-24.2-25.31-24.2Zm.21,36.44c-3.03,0-5.75-1.04-7.85-2.81-.14-.12-.27-.24-.41-.36-.15-.13-.29-.27-.42-.41-.13-.12-.27-.27-.4-.42h-.01c-.26-.29-.5-.6-.73-.91-.96-1.3-1.66-2.81-2.04-4.48-.07-.28-.12-.57-.17-.86-.12-.7-.18-1.44-.18-2.19,0-7,5.2-12.3,12.11-12.3s12.3,5.3,12.3,12.4c0,5.69-3.43,10.25-8.42,11.77-.19.05-.39.11-.58.16-1.01.27-2.08.41-3.2.41Z"/>
        </g>
      </g>
    </g>
  </g>
</svg>