<?xml version="1.0" encoding="UTF-8"?>
<svg xmlns="http://www.w3.org/2000/svg" viewBox="0 0 205.2 137.7">
  <defs>
    <style>
      .cls-1 {
        fill: #fe0049;
      }

      .cls-1, .cls-2 {
        mix-blend-mode: darken;
        stroke-width: 0px;
      }

      .cls-2 {
        fill: #00a7e8;
      }

      .cls-3 {
        isolation: isolate;
      }
    </style>
  </defs>
  <g class="cls-3">
    <g id="Layer_1" data-name="Layer 1">
      <path class="cls-2" d="m152.3,26.5v12.2c-8.9,0-13.8,4.1-13.8,13.3v20.9h-13.6v-40.3c0-2.5,1.9-4.7,4.4-5l8.4-1.1v7.6c2.7-5,7.4-7.6,14.6-7.6Z"/>
      <path class="cls-1" d="m118.9,72.9l-.4-3c-3,2.7-7,4.3-11.6,4.3-9.5,0-17-7-17-16.2s7.3-16.1,17.4-16.1c3.8,0,7.3,1.3,10.4,3.3v-1.6c0-5-2.5-7.6-9.9-7.6-3.7,0-7.3.7-10.9,1.9l1.6-9.9c4.2-1.1,8.1-1.6,11.9-1.6,15.8,0,20,5.4,20,16.4v21.9l.4,8.2h-11.9Zm-.8-15.2c0-4-2.2-7.1-6.6-7.1s-8.6,3.1-8.6,7.1,3.2,7.1,7.5,7.1,7.7-3.1,7.7-7.1Z"/>
      <path class="cls-2" d="m89,72.9l-14.4-21.1v21.1h-13.6V6.6c0-2.5,1.9-4.6,4.3-4.9l9.3-1.2v46.4l13.9-19.5h15.7l-16.5,21.8,17.4,23.7h-16.1Z"/>
      <path class="cls-1" d="m35.3,70.1l1.6-10.1c4.3,2.4,8.3,3.9,12.2,3.9,3.4,0,5.4-1.6,5.4-4.2,0-2-1.1-3.5-5.5-4.8l-1.8-.7c-6.9-2.4-11-7.2-11-14.1,0-8,6.3-14,16.1-14,4.4,0,9.2,1.2,13.5,3.1l-1.7,10.2c-4-2.1-8.3-3.3-11.2-3.3s-4.5,1.6-4.5,3.6c0,1.8,1,3.2,4.7,4.5l2,.7c8.1,2.8,12.2,7.4,12.2,14.5,0,8.8-6.7,14.8-16.9,14.8-5.3,0-10.6-1.6-15.1-4.1Z"/>
      <path class="cls-2" d="m.5,50.2c0-13.6,11-24.1,25.1-24.1s25,10.5,25,24.1-10.9,24-25,24S.5,63.7.5,50.2Zm37.2-.1c0-7-5.2-12.3-12.1-12.3s-12.2,5.3-12.2,12.3,5.3,12.4,12.2,12.4,12.1-5.4,12.1-12.4Z"/>
      <path class="cls-2" d="m153.8,69.5v40.3h13.7v-46.4l-9.3,1.2c-2.5.2-4.4,2.4-4.4,4.9Z"/>
      <path class="cls-1" d="m188.6,109.8l-14.4-21.1v21.1h-13.6V43.5c0-2.5,1.9-4.6,4.4-5l9.2-1.2v46.4l13.9-19.5h15.7l-16.5,21.8,17.4,23.7h-16.1v.1h0Z"/>
      <path class="cls-1" d="m135.5,61.8c-14.4,0-25,10-25,24.5l.2,49.7,9.2-1.4c2.5-.4,4.3-2.5,4.3-4.9v-22.3c3.4,1.7,7.3,2.6,11.5,2.6,1,0,2,0,2.9-.2,12.4-.4,22.2-10.6,22.2-23.8,0-13.9-10.7-24.2-25.3-24.2Zm.2,36.5c-3,0-5.8-1-7.9-2.8-.1-.1-.3-.2-.4-.4-.2-.1-.3-.3-.4-.4l-.4-.4h0c-.3-.3-.5-.6-.7-.9-1-1.3-1.7-2.8-2-4.5-.1-.3-.1-.6-.2-.9-.1-.7-.2-1.4-.2-2.2,0-7,5.2-12.3,12.1-12.3s12.3,5.3,12.3,12.4c0,5.7-3.4,10.2-8.4,11.8-.2,0-.4.1-.6.2-1,.2-2.1.4-3.2.4Z"/>
      <path class="cls-2" d="m160.6,40.3c-4.6,0-8.3,3.6-8.3,8.1s3.7,8,8.3,8,8.4-3.6,8.4-8-3.7-8.1-8.4-8.1Z"/>
      <path class="cls-2" d="m98,62.5c-14.1,0-25.1,10.5-25.1,24.1s11,24,25.1,24,25-10.5,25-24-10.9-24.1-25-24.1Zm-12.2,24c0-7,5.3-12.3,12.2-12.3s12.1,5.3,12.1,12.3-5.2,12.4-12.1,12.4-12.2-5.4-12.2-12.4Z"/>
      <path class="cls-1" d="m60.5,63c-14.4,0-25,10-25,24.5l.2,49.7,9.2-1.4c2.5-.4,4.3-2.5,4.3-4.9v-22.3c3.4,1.7,7.3,2.6,11.5,2.6,1,0,2,0,2.9-.2,12.4-.4,22.2-10.6,22.2-23.8,0-13.9-10.7-24.2-25.3-24.2Zm.2,36.4c-3,0-5.8-1-7.9-2.8-.1-.1-.3-.2-.4-.4-.2-.1-.3-.3-.4-.4-.1-.1-.3-.3-.4-.4h0c-.3-.3-.5-.6-.7-.9-1-1.3-1.7-2.8-2-4.5-.1-.3-.1-.6-.2-.9-.1-.7-.2-1.4-.2-2.2,0-7,5.2-12.3,12.1-12.3s12.3,5.3,12.3,12.4c0,5.7-3.4,10.2-8.4,11.8-.2,0-.4.1-.6.2-1,.3-2.1.4-3.2.4Z"/>
    </g>
  </g>
</svg>