<?xml version="1.0" encoding="UTF-8"?>
<svg xmlns="http://www.w3.org/2000/svg" viewBox="0 0 170.23 100.8">
  <defs>
    <style>
      .cls-1 {
        fill: #fe0049;
      }

      .cls-1, .cls-2 {
        mix-blend-mode: darken;
        stroke-width: 0px;
      }

      .cls-2 {
        fill: #00a7e8;
      }

      .cls-3 {
        isolation: isolate;
      }
    </style>
  </defs>
  <g class="cls-3">
    <g id="Layer_1" data-name="Layer 1">
      <g>
        <path class="cls-2" d="m118.78,32.62v40.28h13.7V26.5l-9.31,1.16c-2.51.31-4.39,2.44-4.39,4.96Z"/>
        <path class="cls-1" d="m153.63,72.9l-14.4-21.1v21.1h-13.6V6.61c0-2.52,1.88-4.65,4.38-4.96l9.22-1.15v46.4l13.9-19.5h15.7l-16.5,21.8,17.4,23.7h-16.1Z"/>
        <path class="cls-1" d="m100.45,24.97c-14.4,0-25,10-25,24.5l.2,49.67,9.24-1.37c2.45-.36,4.26-2.46,4.26-4.94v-22.3c3.42,1.66,7.33,2.58,11.51,2.58,1,0,1.98-.05,2.95-.16,12.4-.44,22.15-10.58,22.15-23.78,0-13.9-10.7-24.2-25.31-24.2Zm.21,36.44c-3.03,0-5.75-1.04-7.85-2.81-.14-.12-.27-.24-.41-.36-.15-.13-.29-.27-.42-.41-.13-.12-.27-.27-.4-.42h-.01c-.26-.29-.5-.6-.73-.91-.96-1.3-1.66-2.81-2.04-4.48-.07-.28-.12-.57-.17-.86-.12-.7-.18-1.44-.18-2.19,0-7,5.2-12.3,12.11-12.3s12.3,5.3,12.3,12.4c0,5.69-3.43,10.25-8.42,11.77-.19.05-.39.11-.58.16-1.01.27-2.08.41-3.2.41Z"/>
        <path class="cls-2" d="m125.58,3.47c-4.6,0-8.3,3.6-8.3,8.1s3.7,8,8.3,8,8.4-3.6,8.4-8-3.7-8.1-8.4-8.1Z"/>
        <path class="cls-2" d="m63,25.65c-14.1,0-25.1,10.5-25.1,24.1s11,24,25.1,24,25-10.5,25-24-10.9-24.1-25-24.1Zm-12.2,24c0-7,5.3-12.3,12.2-12.3s12.1,5.3,12.1,12.3-5.2,12.4-12.1,12.4-12.2-5.4-12.2-12.4Z"/>
        <path class="cls-1" d="m25.5,26.13C11.1,26.13.5,36.13.5,50.63l.2,49.67,9.24-1.37c2.45-.36,4.26-2.46,4.26-4.94v-22.3c3.42,1.66,7.33,2.58,11.51,2.58,1,0,1.98-.05,2.95-.16,12.4-.44,22.15-10.58,22.15-23.78,0-13.9-10.7-24.2-25.31-24.2Zm.21,36.44c-3.03,0-5.75-1.04-7.85-2.81-.14-.12-.27-.24-.41-.36-.15-.13-.29-.27-.42-.41-.13-.12-.27-.27-.4-.42h-.01c-.26-.29-.5-.6-.73-.91-.96-1.3-1.66-2.81-2.04-4.48-.07-.28-.12-.57-.17-.86-.12-.7-.18-1.44-.18-2.19,0-7,5.2-12.3,12.11-12.3s12.3,5.3,12.3,12.4c0,5.69-3.43,10.25-8.42,11.77-.19.05-.39.11-.58.16-1.01.27-2.08.41-3.2.41Z"/>
      </g>
    </g>
  </g>
</svg>